<svg width="60" height="60" viewBox="0 0 60 60" fill="none" xmlns="http://www.w3.org/2000/svg">
<path d="M30 52.5C28.3813 52.5 26.9702 52.3342 25.7669 52.0025C24.5631 51.6708 23.2146 51.0273 21.7213 50.0719L14.9087 45.745C14.085 45.2196 13.4775 44.5073 13.0863 43.6081C12.6954 42.709 12.5 41.8219 12.5 40.9469C12.5 38.9052 13.2356 37.3235 14.7069 36.2019C16.1781 35.0802 17.7758 34.5194 19.5 34.5194C20.42 34.5194 21.3167 34.6612 22.19 34.945C23.0633 35.2283 23.8302 35.6698 24.4906 36.2694C25.0835 36.8302 25.7429 37.2692 26.4688 37.5863C27.1946 37.9038 27.955 38.109 28.75 38.2019V31.2981C26.6892 31.2373 24.734 31.0273 22.8844 30.6681C21.0352 30.3094 19.4119 29.8175 18.0144 29.1925C16.6169 28.5675 15.5087 27.8037 14.69 26.9012C13.8708 25.9992 13.4613 24.9696 13.4613 23.8125C13.4613 22.9792 13.7529 22.2058 14.3363 21.4925C14.9196 20.7796 15.7321 20.1106 16.7738 19.4856C16.5238 19.1106 16.3258 18.6962 16.18 18.2425C16.0342 17.7892 15.9613 17.3125 15.9613 16.8125C15.9613 15.9054 16.305 15.0538 16.9925 14.2575C17.68 13.4608 18.6279 12.75 19.8363 12.125C19.7529 11.9167 19.7113 11.7292 19.7113 11.5625V11C19.7113 9.91667 20.2842 8.96875 21.43 8.15625C22.5758 7.34375 24.0863 6.70833 25.9613 6.25V8.47625C24.4808 8.87667 23.4546 9.33083 22.8825 9.83875C22.31 10.3471 21.9998 10.7533 21.9519 11.0575C21.9998 12.2275 22.8371 13.0121 24.4638 13.4113C26.0904 13.81 27.5192 14.0558 28.75 14.1488V5H31.25V14.1488C32.6408 14.0879 34.1096 13.8581 35.6562 13.4594C37.2029 13.0602 38.0002 12.2596 38.0481 11.0575C38.0002 10.7629 37.6925 10.3696 37.125 9.8775C36.5575 9.38542 35.5496 8.93917 34.1012 8.53875V6.25C35.9762 6.70833 37.4762 7.35417 38.6012 8.1875C39.7262 9.02083 40.2887 9.95833 40.2887 11C40.2887 11.0642 40.2471 11.4392 40.1637 12.125C41.3721 12.75 42.32 13.4583 43.0075 14.25C43.695 15.0417 44.0387 15.8958 44.0387 16.8125C44.0387 17.3125 43.9737 17.7812 43.8438 18.2188C43.7138 18.6562 43.5238 19.0625 43.2738 19.4375C44.3154 20.0625 45.12 20.7396 45.6875 21.4688C46.255 22.1979 46.5387 22.9792 46.5387 23.8125C46.5387 24.9696 46.1292 25.9992 45.31 26.9012C44.4913 27.8037 43.3831 28.5675 41.9856 29.1925C40.5881 29.8175 38.9648 30.3094 37.1156 30.6681C35.266 31.0273 33.3108 31.2373 31.25 31.2981V38.2019C32.045 38.109 32.8054 37.9038 33.5312 37.5863C34.2571 37.2692 34.9165 36.8302 35.5094 36.2694C36.1698 35.6698 36.9367 35.2283 37.81 34.945C38.6833 34.6612 39.58 34.5194 40.5 34.5194C42.2242 34.5194 43.8219 35.0906 45.2931 36.2331C46.7644 37.3756 47.5 38.9677 47.5 41.0094C47.5 41.8844 47.3046 42.7635 46.9137 43.6469C46.5225 44.5298 45.915 45.234 45.0913 45.7594L38.2788 50.0719C36.7854 51.0273 35.4369 51.6708 34.2331 52.0025C33.0298 52.3342 31.6187 52.5 30 52.5ZM33.5312 49.5625C34.5521 49.2708 35.6875 48.7292 36.9375 47.9375L43.75 43.625C44.1667 43.375 44.4792 42.9912 44.6875 42.4737C44.8958 41.9558 45 41.4677 45 41.0094C45 39.801 44.5208 38.834 43.5625 38.1081C42.6042 37.3823 41.5833 37.0194 40.5 37.0194C39.875 37.0194 39.2708 37.1131 38.6875 37.3006C38.1042 37.4881 37.5833 37.7694 37.125 38.1444C36.125 39.0194 35.0208 39.6965 33.8125 40.1756C32.6042 40.6548 31.3333 40.8944 30 40.8944C28.6667 40.8944 27.3958 40.6548 26.1875 40.1756C24.9792 39.6965 23.875 39.0194 22.875 38.1444C22.4167 37.7694 21.8958 37.4881 21.3125 37.3006C20.7292 37.1131 20.125 37.0194 19.5 37.0194C18.4167 37.0194 17.3958 37.3719 16.4375 38.0769C15.4792 38.7819 15 39.7385 15 40.9469C15 41.4052 15.1042 41.9037 15.3125 42.4425C15.5208 42.9808 15.8333 43.375 16.25 43.625L23.0625 48C24.3125 48.7917 25.4479 49.3229 26.4688 49.5938C27.4896 49.8646 28.6667 50 30 50C31.3333 50 32.5104 49.8542 33.5312 49.5625ZM28.75 29.0863V23.7981C26.6763 23.7148 24.7283 23.4631 22.9062 23.0431C21.0842 22.6235 19.5833 21.9713 18.4037 21.0863C17.3492 21.6313 16.6352 22.1529 16.2619 22.6512C15.8885 23.1496 15.6923 23.5463 15.6731 23.8413C15.6923 25.165 16.919 26.3421 19.3531 27.3725C21.7877 28.4029 24.92 28.9742 28.75 29.0863ZM21.9375 42.995C22.3125 42.62 22.5 42.1825 22.5 41.6825C22.5 41.1825 22.3125 40.745 21.9375 40.37C21.5625 39.995 21.125 39.8075 20.625 39.8075C20.125 39.8075 19.6875 39.995 19.3125 40.37C18.9375 40.745 18.75 41.1825 18.75 41.6825C18.75 42.1825 18.9375 42.62 19.3125 42.995C19.6875 43.37 20.125 43.5575 20.625 43.5575C21.125 43.5575 21.5625 43.37 21.9375 42.995ZM28.75 21.5863V16.3606C27.2083 16.2773 25.7531 16.0569 24.3844 15.6994C23.016 15.3423 21.9408 14.7727 21.1588 13.9906C20.0721 14.5256 19.3077 15.0423 18.8656 15.5406C18.4231 16.0394 18.1923 16.4681 18.1731 16.8269C18.1827 18.3077 19.2531 19.4431 21.3844 20.2331C23.516 21.0231 25.9713 21.4742 28.75 21.5863ZM31.25 29.0863C35.08 28.9742 38.2123 28.4029 40.6469 27.3725C43.081 26.3421 44.3077 25.165 44.3269 23.8413C44.3077 23.5463 44.1058 23.1496 43.7212 22.6512C43.3367 22.1529 42.6171 21.6313 41.5625 21.0863C40.3829 21.9392 38.8902 22.5835 37.0844 23.0194C35.2781 23.4552 33.3333 23.7148 31.25 23.7981V29.0863ZM31.25 21.5863C34.0287 21.4742 36.484 21.0231 38.6156 20.2331C40.7469 19.4431 41.8173 18.3077 41.8269 16.8269C41.8077 16.4777 41.5842 16.0538 41.1562 15.555C40.7283 15.0567 39.9615 14.5352 38.8556 13.9906C38.0735 14.7823 36.9983 15.3544 35.63 15.7069C34.2613 16.0594 32.8013 16.2773 31.25 16.3606V21.5863ZM40.6875 42.995C41.0625 42.62 41.25 42.1825 41.25 41.6825C41.25 41.1825 41.0625 40.745 40.6875 40.37C40.3125 39.995 39.875 39.8075 39.375 39.8075C38.875 39.8075 38.4375 39.995 38.0625 40.37C37.6875 40.745 37.5 41.1825 37.5 41.6825C37.5 42.1825 37.6875 42.62 38.0625 42.995C38.4375 43.37 38.875 43.5575 39.375 43.5575C39.875 43.5575 40.3125 43.37 40.6875 42.995Z" fill="#416171"/>
</svg>
